<svg xmlns="http://www.w3.org/2000/svg" width="512" height="512" viewBox="0 0 512 512">
  <g id="Group_82287" data-name="Group 82287" transform="translate(-114 -106)">
    <ellipse id="Ellipse_1" data-name="Ellipse 1" cx="228.118" cy="230.624" rx="228.118" ry="230.624" transform="translate(145.381 131.669)" fill="#fff"/>
    <g id="Group_2" data-name="Group 2" transform="translate(114 106)">
      <path id="Path_232397" data-name="Path 232397" d="M293.1,0H337.24c2.358.225,4.739.289,7.081.674,3.034.77,5.753,2.511,8.891,2.92,6.9,1.067,13.631,3.024,20.607,3.586,10.275.947,19.5,5.888,28.646,10.268,17.018,8.3,34.873,15.987,48.85,29.095,5.576,4.893,10.951,10.011,16.4,15.041,1.851,1.6,2.084,4.163,2.567,6.4-4.023-2.182-7.29-5.535-11.571-7.268-3.661-1.444-5.584-5.094-8.771-7.2-7.25-4.99-15.57-8.254-22.611-13.589a20.674,20.674,0,0,0-6.976-3.369c-7.3-2.286-12.778-8.158-20.052-10.484a166.4,166.4,0,0,1-18.909-7c-4.16-2.005-8.811-2.431-13.212-3.658-6.019-1.612-12.078-3.281-18.322-3.69-3.83-.217-7.451-1.644-11.249-2.07-12.03-1.3-24.115-3.072-36.249-2.142-5.552.642-11.16-.963-16.656.433-5-1.155-10.171-.369-15.232-.016-4.683.618-9.6.4-14,2.334-3.106,1.444-6.606,1.283-9.929,1.1,2.5-2.984,6.622-2.936,10.034-4.139,4.868-1.348,9.173-4.075,13.84-5.9C275.869.594,281.5-.5,286.982.69,289.05,1.267,291.077.361,293.1,0Z" transform="translate(-48.162)" fill="#2e3093"/>
      <path id="Path_232398" data-name="Path 232398" d="M231.856,17.261c.837-.449,1.7-.882,2.559-1.291a9.633,9.633,0,0,1-10.605,3.866c.507-1.035.628-2.495,1.867-2.96C227.7,16.219,229.821,17.013,231.856,17.261Z" transform="translate(-43.722 -3.159)" fill="#2e3093"/>
      <path id="Path_232399" data-name="Path 232399" d="M214.258,20.45c-.04.233-.121.7-.161.922a22.711,22.711,0,0,1-4.924,3.241c-.426-.521-.837-1.059-1.223-1.6C210.026,22.094,212.134,21.26,214.258,20.45Z" transform="translate(-40.623 -4.046)" fill="#2e3093"/>
      <path id="Path_232400" data-name="Path 232400" d="M183.527,31.377c2.165-.906,3.54-2.96,5.56-4.1,1.464-.265,2.792.6,4.136,1.035C188,33.358,180.6,34.987,175.046,39.567c-4.136,3.2-9.994,4.412-14.846,2.134.41-1.741.99-3.666,2.712-4.556a93.247,93.247,0,0,1,10.364-4.035C176.567,31.858,180.236,32.62,183.527,31.377Z" transform="translate(-31.295 -5.387)" fill="#2e3093"/>
      <g id="Group_82286" data-name="Group 82286" transform="translate(28.778 24.359)">
        <path id="Path_232401" data-name="Path 232401" d="M222.254,34c7.966-.923,15.691-3.634,23.761-3.594,11.788-.144,23.592.072,35.364.73,14.427.064,28.4,4.107,42.333,7.388,3.508.441,7.379,2.784,7.1,6.794,1.6.5,3.194,1.027,4.8,1.54.813-1.211,1.641-2.407,2.519-3.578,11.49,2.527,21.444,9.016,32,13.878,10.525,5.286,19.215,13.412,27.447,21.667a245.243,245.243,0,0,1,28.613,24.98c2.309,3.136,6.743.185,9.495,2.5,3.122,2.9,5.222,6.65,7.548,10.164a174.626,174.626,0,0,0,12.182,16.035c1.384,1.789,2.993,3.57,3.556,5.832.821,2.767.756,5.856,2.43,8.318,1.762,2.7,4.184,4.909,5.946,7.621,4.554,6.81,6.831,14.76,10.147,22.18-16.568-1.468-33.1,1-49.558,2.527-14.524,1.949-28.983,4.4-43.491,6.522-29.965,4.42-60,8.359-90.129,11.535-16.141,1.115-32.218,3.08-48.384,3.794-26.771,1.861-53.694,3.016-80.473.682-11.893-1.043-24.164-2.11-35.067-7.388-3.8-1.749-7.346-4.965-8.135-9.209.66-3.505,3.138-6.313,5.818-8.519,7.491-6.241,16.536-10.155,24.7-15.386,7.942-5.07,16.873-9.024,23.174-16.252,8.111-8.936,11.233-21.249,11.844-33.025-2.02.658-2.945,2.535-3.693,4.34a41.649,41.649,0,0,1-8.441,13.18c-13.317,14.439-32.532,21.153-47.241,33.884a77.523,77.523,0,0,0-21.734,29.608c-2.575,5.9-5.061,12.45-3.339,18.963,2.02,6.457,7.7,11.038,13.727,13.653,12.673,5.663,26.771,6.225,40.409,7.115,15.787.281,31.607.931,47.378-.281,50.323-2.952,100.114-11.343,149.608-20.56,18.885-3.169,37.6-7.268,56.341-11.206,19.762-4.58,39.685-8.455,59.3-13.6,3.355-.882,6.743-1.636,10.114-2.455,3.613,10.4,7.25,20.84,9.133,31.718-2.51-.136-5.222-1.067-7.58.184a41.546,41.546,0,0,0-18.571,16.669c-3.685-4.187-6.912-10.019-12.955-10.861a13.706,13.706,0,0,0-10.718,3.369c-3.114,3.77-1.577,10.131,2.559,12.546a16.894,16.894,0,0,0,7.411,2.495c2.889-.144,4.908-2.4,6.872-4.244,2.591,4.548,2.156,9.859,2.567,14.872.74,3.915,6.123,5.607,8.843,2.567a26.724,26.724,0,0,1,3.532-15.891c3.677-6.329,9.728-10.757,15.86-14.527,1.328-.722,2.012-2.126,2.881-3.3,2.092,16.252,7.234,32.5,4.852,49.021-2.245,9.819.354,20.014-1.939,29.825-1.746,7.653-2.14,15.554-4.007,23.191a220.547,220.547,0,0,1-18.225,50.128c-2.873,5.928-6.9,11.19-10.71,16.541-3.87,5.07-6.292,11.134-10.734,15.795-5.415,5.824-10.565,11.888-15.988,17.712-6.027,6.385-13.1,11.672-20.2,16.789-1.859,1.2-4.064,2.88-6.381,1.965a13.233,13.233,0,0,1-.708-2.743,185.282,185.282,0,0,1-27.487,19.212c-1.714.754-2.044,2.759-3.259,4-2.052,1.332-4.643,1.765-6.437,3.506-2.382,2.254-4.216,5.23-7.371,6.522-6.928,3-13.18,7.837-20.832,8.936,1.818-1.564,3.943-2.743,5.6-4.468.845-4.051,1.094-8.535-.8-12.345a7.912,7.912,0,0,0-8.642-4.236c-4.273.8-8.553,2.936-11.024,6.6-1.545,1.821.925,4.757,3.074,4.412,3.412-.834,5.6-5.182,9.6-4.46,3.034,1.38,2.639,5.383,2.977,8.166-3.645.626-6.751-1.436-9.6-3.369-.274,1.492-.982,3.04-.426,4.556.756,2.775,3.42,4.34,5.753,5.687-2.889,2.142-6.831,1.356-9.768,3.393-1.706,1.227-3.87.858-5.818,1.243-3,1.115-5.5,3.505-8.779,3.866q-9.644,1.42-19.328,2.487c-1.151-3.369-2.446-7.356-5.987-8.912a8.435,8.435,0,0,0-9,2.27c-2.189,2.158-2.631,5.326-3.122,8.206-.443.008-1.328.008-1.77.016.249-2.808.829-5.752-.161-8.471-1.014-2.792-4.409-4.757-7.242-3.3-4.788,1.644-7.049,6.594-8.183,11.142a216.707,216.707,0,0,1-49.711-7.38c-15.562-3.722-31.043-8.407-45.149-16.092a210.417,210.417,0,0,1-22.128-13.8,72.49,72.49,0,0,1-9.6-7.444,108.744,108.744,0,0,0,21.2,3c13.719,1.38,27.479-1.6,40.377-6.088,1.5-.642,3.476-1.027,4.1-2.743.547-1.532-.169-3.682-1.947-3.931-4.683-1.107-9.422.441-13.969,1.468-12.826,2.856-26.143,2.687-39.1.818-7.161-1.452-14.411-3.369-20.615-7.356a120.823,120.823,0,0,1-12.754-9.04c-1.263-1.307-3.114-.586-4.667-.457.386-6.714.257-13.813-3.017-19.886-3.315-6.265-5-13.2-6.284-20.118-.5-2.968-1.77-5.752-2.132-8.744-.507-3.818,1.255-7.476,1-11.287-.282-7.171.515-14.728,4.208-21.033,2.084-3.81,3.267-8.126,6.043-11.551,2.213-3.016,5.142-6.048,5-10.059-.491-.417-1.473-1.251-1.971-1.66-4.458,3.385-7.789,7.941-10.879,12.546-1.086-6.634-6.373-12.065-12.665-14.142-6.719-1.813-13.582,1.612-18.193,6.361.748,2.944-.515,5.687-1.537,8.375-.877,4.171,1.432,8.343,4.49,11.062,1.609,1.348,3.452,3.136,5.761,2.6,2.712-.866,4.892-3.578,4.474-6.5-.491-1.3-1.907-1.925-2.865-2.84-.9.834-1.8,1.669-2.7,2.519-1.561-1.243-4.128-2.166-4.023-4.556-.41-4.685,3.05-8.84,7.177-10.629,2.478-1.051,5.56-2.021,8.014-.425,2.35,1.324,4.852,2.6,6.662,4.653a21.332,21.332,0,0,1,1.368,8.864c-.62,3.321-2.865,6.113-3.388,9.474a134.52,134.52,0,0,0-1.971,30.6c-.072,4.211,2.631,7.813,2.4,12.057,1.336,5.118,1.915,10.436,3.806,15.41,1.143,4.051,3.066,7.821,4.249,11.856A214.206,214.206,0,0,1,66.177,375.5a223.988,223.988,0,0,1-28.613-83.939c-.628-5.078-1.585-10.115-1.786-15.233.056-13.629-.394-27.322,1.368-40.879.869-5.118-1.183-10.236-.137-15.354a258.484,258.484,0,0,1,8.328-34.838c2.993-8.728,7.878-16.613,11.933-24.867,4.047-8.7,9.889-16.372,15.111-24.378,4.152-6.482,9.149-12.426,12.705-19.26,2.519-2.294,5.48-4.107,7.733-6.714,5.254-5.23,9.189-11.7,15.023-16.356,3.17-2.687,6.534-5.19,9.27-8.359a65.949,65.949,0,0,1,21-15.281c3.146-1.492,5.6-4.035,8.57-5.816,2.688-1.644,5.528-3.04,8.215-4.693-.587,4.043-.2,8.92,3.355,11.551,5.061,2.647,11.611,3.554,16.721.537,3.709-2.655,4.3-7.765,3.347-11.912-.652-3.907-2.856-7.284-5.254-10.348,4.2-1.46,8.457-2.735,12.713-4.027,4.715-1.364,8.891-4.059,13.542-5.607C206.757,37.14,214.369,34.685,222.254,34Zm85.067,17.88c-3.283,8.583-7.2,17.062-8.545,26.231-2.832,19.477-6.389,38.945-6.59,58.679-.258,10.805.089,22.172,5.5,31.854a21.368,21.368,0,0,0,17.525,11.928,48.113,48.113,0,0,0,25.451-6.305c15.747-9.057,27.825-23.431,36.306-39.282,3.2-5.976,9.4-9.618,12.665-15.522,1.352-2.238,1.127-4.917.821-7.4-3.355.361-6.783,1.677-10.114.6-5.89-1.725-11.4-5.158-17.71-5.062-6.123.1-11.37,3.931-15.691,7.917-8.352,8.2-14.709,18.113-21.138,27.819a19.3,19.3,0,0,1-4.015,4.348c-8.409-2.84-14.492-10.549-16.608-18.971-2.478-10.212-2.036-20.856-.789-31.2,2.068-16.4,5.029-32.664,7.636-48.973a36.18,36.18,0,0,0,.451-7.966C309.655,43.782,308.85,48.041,307.322,51.884Zm-61.25,10.34c-.684,1.725-1.553,4.059-.225,5.655,4.232,2.816,10.428.658,14.162,4.428-6.027,4.733-13.309,7.436-19.641,11.7a71.033,71.033,0,0,0,19.658-4.6c2.116-.9,4.409-1.957,5.592-4.043a20.121,20.121,0,0,0,1.32-6.754c-.048-1.813-.129-4.179-2.052-5.054-3.975-1.877-9.141-.77-12.255-4.412,1.81-1.925,3.75-3.907,6.308-4.813,2.052-.786,4.289-.674,6.429-1.043,1.392-3.008-.008-6.321-1.6-8.936C255.4,47.127,249.62,54.5,246.072,62.224Zm-45.181-3.369A34.039,34.039,0,0,0,202.4,87.291c.917,1.893,2.663,3.409,3,5.535-1.384.754-2.961.449-4.442.353-8.916-.85-17.815.6-26.634,1.741A105.882,105.882,0,0,0,143,107.185c-2.164.89-1.625,4.741.716,4.909,7.21-.168,13.357-4.452,20.189-6.193,3.243-.81,6.469-1.669,9.7-2.5,5.721-1.484,11.659-1.388,17.5-1.973,6-.553,12.021.3,17.928,1.316,8.69,1.925,16.576,6.241,24.276,10.533a26.3,26.3,0,0,0,3.991-4.356,30.554,30.554,0,0,0-7.853-8.639c-6-4.34-14.033-3.923-20.036-8.319,1.955-2.952-.877-5.487-2.277-7.909-4.257-6.738-4.313-15.041-3.919-22.726.209-3.361,2.7-5.88,3.83-8.912a24.877,24.877,0,0,0-.33-4.821C204.045,50.929,202.564,54.972,200.891,58.854Zm129.178-1.54c-1.3,9.594-.008,19.4-1.939,28.934-.322,2.3-1.714,5.142.676,6.835a48.076,48.076,0,0,0,4.876-26.9C333.183,63.042,333.553,58.838,330.069,57.314Zm34.994,15.2c5.367,2.6,12.279-2.382,11.692-8.3-2.873-.594-4.578,2.038-6.831,3.193-2.221-.008-3.355-2.374-4.932-3.578C362.947,66.226,361.933,70.542,365.063,72.515ZM272.48,99.829c-3.886,4.885-9.543,7.861-14.942,10.765-6.671,3.457-13.011,7.741-18.016,13.388-9.575,9.9-11.981,24.53-22.039,34.052-11.16,11.126-25.371,18.362-38.824,26.287-3.388,1.733-6.695,3.77-9.02,6.851,9.768-1.62,19.827-3.778,29.675-1.452,5.729,1.588,11.442-1.54,15.184-5.7,9.1-10.131,14.532-22.83,19.352-35.392,1.513-4.123,4.1-8.27,8.4-9.915,9.624-3.722,18.813-9.153,25.548-17.086,8.095-9.225,11.627-21.875,10.766-33.988C275.57,91.2,275.063,96.043,272.48,99.829Zm-151.628.874c2.454-1.58,5.464-4.452,8.545-2.535,3.315,1.717,1.963,5.784,1.907,8.72,7.137-2.663,3.363-14.744-3.693-14.142C123.564,92.971,121.005,96.95,120.852,100.7Zm273-3.979c.362.923.732,1.845,1.118,2.759a16.052,16.052,0,0,0,2.881-1.973C396.525,97.206,395.189,96.95,393.854,96.725Zm-271.191,22.14c-3.315,1.845-6.236,4.308-9.447,6.321-1.062-.626-2.132-1.243-3.194-1.861-.949.963-1.9,1.925-2.832,2.9-.3,1.372.853,3.778-1.151,4.1-5.777,1.636-8.6,7.693-10.291,12.955-1.489,5.527-6.067,9.466-7.982,14.792-.837,2.222-1.312,4.548-2.084,6.786-1.014,2.912-3.428,5.126-4.289,8.094-.692,3.481.072,6.995.853,10.388C82,186.9,79.614,190.041,79.936,193.7c.217,4-.475,8.022-.04,12.017a133.81,133.81,0,0,0,4.047,13.934c.531.265,1.585.786,2.116,1.051,2.036-1.572,1.231-3.883.982-6.032,1.376-2.639,1.271-5.591,1.006-8.471a13.94,13.94,0,0,0,1.352-3.674c.6-6.417.732-12.859.949-19.284a113.591,113.591,0,0,1,4.474-20.086c.933-3.233,3.09-5.864,4.884-8.639,5.584-8.543,10.975-17.239,17.115-25.4,2.583-3.594,6.791-5.383,9.937-8.351C126.9,118.72,124.16,118.1,122.663,118.865Zm10.018,2.046c-.869,2.358,1.609,3.5,3.122,4.677,1.971-1.484,3.661-3.393,3.854-5.968C137.5,118.079,133.67,118.015,132.681,120.91Zm271.891,6.851a37.113,37.113,0,0,0,1.778,13.958c-6.228-1.219-12.754,1.171-17.292,5.431a23.644,23.644,0,0,0,.523,2.687c3.355.5,6.654,1.436,10.058,1.628,2.977-.337,6.22-1.957,7.314-4.893a39.181,39.181,0,0,0-.217-4.452c1.81-.032,3.7.329,5.48-.176a36.17,36.17,0,0,0,4.3-3.032c1.6,2.431,2.655,7.107,6.437,6.281,4.916-1.428,7.62-6.826,7.749-11.648.241-2.246-1.4-3.963-2.752-5.519a26.936,26.936,0,0,0-9.72,8.559c-2.462-3.987-4.538-8.848-9.173-10.749C407.2,124.849,405.819,126.726,404.572,127.761Zm-211.542,5.912c-.772,1.821-1.537,3.65-2.325,5.463,7.813,1.628,15.739,4.292,21.428,10.139,1.03-1.588,1.939-3.257,2.913-4.877C209.589,137.8,200.867,135.911,193.029,133.673Zm68.9,6.209a71.776,71.776,0,0,1,12.335,17.648c1.046,2.711,1.786,5.543,3.219,8.094,2.551,4.444,2.929,9.642,4.595,14.407,1.11,3.2,1.987,6.778,4.747,9.016a101.774,101.774,0,0,0-2.076-20.945c-1.207-7.637-5.2-14.407-9-21.009-1.915-4.34-5.238-7.781-7.813-11.712C265.987,136.946,263.975,138.446,261.931,139.882Zm152.5,14.8c-1.971-2.086-4.393-3.794-7.354-3.987-1.617,2.013-4.24,3.963-3.774,6.875a13.084,13.084,0,0,0,5.576,9.361c1.577,1.027,3-.914,3.532-2.222,1.014-2.735,1.448-5.816,3.758-7.861,1.875,1.8,3.589,3.915,6.027,4.99,4.8,1.027,9.8-1.492,12.738-5.23,1.07-1.211,2-2.952.708-4.388-2.43-3.281-7.057-4.7-11.016-3.971C420.6,149.179,417.414,152,414.428,154.682Zm32.781,3.128c-1.69,2.2-.37,4.925.539,7.131,2.237,1.2,5.367,1.965,7.338-.152,2.824-3.449-.217-8.182-3.4-10.172C449.6,154.1,448.377,156.479,447.21,157.81Zm-77.665,9.923c-1.231.979-3.1,3.193-1.344,4.516,4.047.674,7.419-2.479,10.01-5.174C375.347,166.714,371.854,165.238,369.545,167.733Zm-136.879,5.631c2.148,4.5,5.641,8.182,8.722,12.065,1.473,1.781,1.754,4.115,1.819,6.345,1.183.032,2.374.072,3.565.12-.74-6.161-1.481-12.69-5.126-17.912-1.754-2.479-4.458-5-7.781-4.187C232.047,169.779,232.272,172.161,232.666,173.364Zm-88.061,4.316c-2.3,3.505,1.979,6.57,2.173,10.1.539,2.888,3.7,2.479,5.818,1.853-1.923-1.981-5.335-3.786-4.53-7.059.547-3.112,4.015-3.778,6.453-4.845C151.7,175.819,147.1,174.792,144.606,177.68Zm243.833,64.2c5.319,1.628,9.978,4.749,14.46,7.941a47.844,47.844,0,0,0,9.793-8.736c2.591-3.3,5.52-7.637,3.87-11.976-2.792-4.011-7.8-5.495-12.15-7.2C398.907,228.417,393.805,235.252,388.438,241.878Zm-90.29-1.628a25.4,25.4,0,0,0-12.681,5.663c-3.066,2.39-6.566,4.123-9.648,6.482-2.945,2.206-4.747,5.487-7.057,8.27-2.333,3-4.836,6.209-5.343,10.091a20.148,20.148,0,0,0,2.527,3.746,11.216,11.216,0,0,0,4.385-3.554A83.624,83.624,0,0,1,293.747,248.6c3.371-2.447,7.821-1.933,11.627-3.273,11.434-1.989,23.077-3.987,34.713-2.7,3.565.57,6.888-1.348,10.436-1.123,3.066-.016,6.284,1.275,9.165-.353-3.886-4.412-10.01-5.487-15.61-5.647-5.721-.168-11.16-2.663-16.922-2.2A105.633,105.633,0,0,0,298.149,240.249ZM148,242.856c.2,3.273,1.971,6.73,5.11,8.086,4.482,2.1,8.215,5.711,13.172,6.794,9.471,2.029,19.489,3.417,29,.8,5.737-1.275,10.637-4.653,15.7-7.46,2.679-1.46,4.192-4.2,5.624-6.77-.306-.505-.925-1.524-1.239-2.029-.636,0-1.907.008-2.543.016a42.07,42.07,0,0,1-20.084,10.292c-7.813.513-15.876.586-23.439-1.733-4.361-1.219-7.395-5.054-11.869-6.04C154.318,244.068,151.26,241,148,242.856Zm-32.975.537a28.449,28.449,0,0,1,4.273,8.447c4.57,6.538,7.025,14.327,8.28,22.132-1.464,9.185-7.54,16.645-11.981,24.554.41.128,1.223.385,1.625.521,4.385-1.179,6.413-5.631,9.028-8.9,3.066-3.7,3.959-8.511,5.5-12.931.966-2.9.6-5.976.507-8.968-.169-4.877-.587-9.963-2.9-14.359-1.786-2.735-4.554-4.629-6.51-7.228A7.924,7.924,0,0,0,115.027,243.394Zm248.306-.209c-.539,1.668-2.028,4.027-.1,5.35a19.693,19.693,0,0,0,7.491,3.136c2.132.738,2.5-2.021,3.412-3.265A29.2,29.2,0,0,0,363.333,243.185Zm-301.6,5.832c-2.47,3.433-6.63,5.687-7.837,9.939-1.827,4.821-1.545,10.027-2.028,15.065-.6,4.155,1.6,7.966,2.655,11.864,1.271,4.6,4.554,8.2,7.29,11.992,1.65,2.318,4.168,4.163,7.194,3.7-3.83-6.6-8.513-12.8-11.016-20.086-.579-1.957-1.641-3.971-1.078-6.04,1.352-6.345,2.961-12.795,6.469-18.338,2.374-3.505,3.428-7.685,5.8-11.19A8.276,8.276,0,0,0,61.735,249.017Zm344.293,18.875c-3.042-5.856-9.422-8.375-15.232-10.613-5.52,6.827-10.79,13.837-16.31,20.656,5.689,1.636,10.662,4.941,15.321,8.495,7.467-2.495,13.88-8.2,16.479-15.7a54.191,54.191,0,0,1,12.6,7.573c5.681-.923,10.05-5.206,13.076-9.835,1.875-2.952,3.09-6.915,1.247-10.155-2.639-4.709-7.9-6.891-12.625-8.92C415.571,255.434,410.759,261.635,406.028,267.892ZM75.663,266.737c-1,6.674-5.842,12.281-5.576,19.252-.467,3.963,3.726,7.789,7.636,6.562,6.139-1.669,9.728-7.524,12.086-13,2.575-6.506,4.506-14.062,1.682-20.8-1.432-3.714-5.439-5.222-8.948-6.3C79.365,256.718,77.522,261.8,75.663,266.737ZM112.822,266c-4.434,12.337-13.961,22.22-24.856,29.207a20.122,20.122,0,0,0-4.8,4.187c3.862-1.1,7.483-3.008,11.5-3.578,2.245-.393,4.667-.433,6.646-1.709,3.685-2.2,5.995-6.04,7.684-9.867,4.249-9.979,6.405-20.664,8.851-31.18C114.632,256.662,114.576,261.715,112.822,266Zm112.337-3.209a132.434,132.434,0,0,0-13.832,14.335c-9.664,12.1-18.113,25.653-21.565,40.9-1,4.885-2.068,9.963-1.127,14.944a15.092,15.092,0,0,0,9.455,10.6c5.158,2.214,11.506,3.161,14.846,8.19,2.229,3.1.507,7.075-1.223,9.987a60.156,60.156,0,0,1-30.7,24.611c-8.859,3.1-18.547,3.289-27.7,1.548A32.493,32.493,0,0,1,129.2,366.391c-2.478-7.548-1.979-15.69-.177-23.327,3.709-16.83,10.654-32.761,18.37-48.106-.748-.7-1.489-1.4-2.237-2.1a23.979,23.979,0,0,0-3.927,5.1,302.787,302.787,0,0,0-13.7,27.908c-7.66,19.236-12.553,40.293-9.447,61.029,1.537,11.5,7.572,22.95,17.839,28.934,10.163,5.719,22.578,6.048,33.7,3.273,12.126-3.345,22.08-11.8,29.869-21.37,12.287-15.7,20.752-34.758,22.192-54.756.523-5.968.692-12.658-3.082-17.712-4.466-6.185-13.727-6.048-17.887-12.562-2.358-3.04-.837-7.1.982-10,5.641-8.992,13.035-17.15,22.313-22.5,3.581-2.23,7.966-1.34,11.933-1.949,3.331-.642,5.7-3.361,7.636-5.936a31.331,31.331,0,0,0,5.037-11.246,7.117,7.117,0,0,0-8.336-7.019C234.412,255.178,229.6,259.036,225.159,262.79Zm72.33,4.035c-3.106,7.629-6.542,15.193-8.28,23.287-.949,4.42-1.038,8.96-1.561,13.444-1.722,19.324-3.38,38.665-5.359,57.965-.781,4.58-1.6,9.161-1.931,13.8a34.877,34.877,0,0,0,6.349-9.434c5.134-10.677,7.918-22.332,9.39-34.036,2.068-21.209,4.08-42.435,6.558-63.6.6-4.524,1.931-8.984,1.65-13.589C300.965,258.033,299.275,262.534,297.489,266.825Zm167.544,14.391c-.571,1.957,1.038,3.538,1.714,5.238a11.136,11.136,0,0,1,1.1,7.877,82.173,82.173,0,0,1-8.964,1.123c-.185-2.078-1.006-4.227-.378-6.273,1.078-1.837,2.913-3.08,4.289-4.685a7.675,7.675,0,0,0-8.618,1.3c-4.49,4.637-2.325,14.118,4.241,15.586,4.1,1.291,8.787,1.741,12.762-.217,3.025-1.444,4.667-4.821,4.747-8.054a19.224,19.224,0,0,0-5.584-14.287C468.324,278.489,465.749,279.058,465.033,281.216Zm-222.107,23.4c8.151,2.431,15.28,7.42,21.106,13.509,4.691-3.786,9.028-8.15,11.965-13.452,2.237-3.971,3.267-9.129.829-13.252-3.219-5.543-9.382-8.126-14.9-10.789C255.446,288.508,249.347,296.69,242.926,304.616Zm83.6-18.578c-2.953,1.845-4.868,4.853-7.008,7.508-3.532,4.46-5.134,10.091-5.93,15.634a17.078,17.078,0,0,0,1.392,11.559c2.285,5.358,7.773,8.471,13.092,10.123,2.688-.554,5.174-1.957,8.014-1.8,7.322-.626,11.072-9.377,9.165-15.8-.837-2.655-3.315-4.372-5.874-5.15a21.61,21.61,0,0,0-4.418,1.227c-.322,1.332-.652,2.663-.974,4,1.666,1.524,4.377,2.856,3.838,5.567a2.782,2.782,0,0,1-2.044,2.936c-7.025,3.056-16.2-3.313-15.57-10.982.29-3.77-.571-8.206,2.189-11.279,2.044-2.27,3.782-5.174,6.888-6.1,4.1-1.324,7.99-3.7,12.448-3.385,5.4-.361,10.251,2.366,15.385,3.514,1.215.249,2.784.473,3.661-.634,2.2-1.845-.515-4.4-2.181-5.487-4.5-2.5-9.294-4.869-14.443-5.623A36.678,36.678,0,0,0,326.529,286.037Zm100.589,20.937c-2.446,1.412-4.884-.594-6.823-1.925-2.792,5.35-5.061,11.656-10.621,14.792a7.473,7.473,0,0,1-8.98-1.468c-5.222,5.872-9.511,12.987-16.616,16.822-3.806,2.038-7.886.136-11.724-.65-9.833-2.062-20.237.144-28.831,5.182-14.709,8.447-25.765,21.715-35.759,35.119-16.358,22.076-33.168,44.48-55.3,61.206-3.846,3.008-8.272,5.222-11.852,8.575,7.966-.73,15.562-3.746,22.45-7.693,13.357-7.95,24.164-19.485,33.312-31.894,9.068-11.9,16.873-25.132,28.75-34.574,7.6-6.273,17.083-10.757,27.076-10.9,5.633-.217,11.209,3.546,16.745,1.051,9.994-4.588,15.441-14.792,23.882-21.362,3.1-2.431,7.33-.04,10.678-1.8,5.858-2.527,9.495-8.038,12.939-13.116a15.633,15.633,0,0,0,10.959-6.722c4.957-7.2,5.8-16.18,7.113-24.571C430.65,296.939,431.761,303.677,427.118,306.974Zm-51.562.674c.571,3.658,3.227,6.6,3.709,10.284.314,1.885.539,3.794.764,5.7,1.979.321,3.959.626,5.938,1.019a30.923,30.923,0,0,0-7.282-19.7A17.37,17.37,0,0,0,375.556,307.648Zm87.079,1.8a4.454,4.454,0,0,0-1.9,6.217,2.1,2.1,0,0,0,2.744.265,11.356,11.356,0,0,0,4.78-3.57C468.139,309.862,464.807,308.177,462.635,309.453ZM240.954,324.317a69.462,69.462,0,0,0,1.086,16.982c1.1,8.431,1.287,17.375,5.938,24.827a61.45,61.45,0,0,0,4.611-8.832c-.563-3.995-1.36-7.966-1.617-12-.338-4.821-4.385-8.19-5.552-12.73-1-3.666-1.392-7.484-2.784-11.046C242.1,322.44,241.123,323.21,240.954,324.317Zm190.34,4.981c2.156,6.449,2.325,13.268,1.658,19.974.539,7.661-2.1,15.161-5.995,21.667-2.366,3.794-2.285,8.8-5.584,12.057-5.777,5.5-9.905,12.578-16.286,17.471-3.919,3.273-8.409,6.153-11.04,10.645-2.229,3.786-4.273,7.677-6.228,11.615,2.776-.834,5.8-1.412,7.982-3.465,3.734-3.241,7.379-6.578,11.032-9.915,5.858-5.158,10.4-11.559,15.353-17.527,3.363-2.743,5.118-6.754,7.242-10.412a132.979,132.979,0,0,0,9.784-22.862c1.167-3.3.708-6.842,1.36-10.212,1.344-2.631,3.38-4.829,5.142-7.187,3.87-.626,8.2-2.013,11.844.112,3.267,1.636,4.836,5.126,6.147,8.335.716,3.634-.7,9.45-5.311,9.514-1.883.193-2.293-2.086-3.219-3.225-1.062.144-2.108.321-3.146.546-1.642,2.294-2.036,5.848.233,7.893,1.545,1.909,4.216,1.179,6.276.77a12.307,12.307,0,0,0,9.487-7.661c.249-2.9.66-5.832,2.47-8.222a31.639,31.639,0,0,0-2.913-6.6c-2.551-4.4-7.435-7.139-12.392-7.853a21,21,0,0,0-15.65,6.794c-.539-5.912-1.609-11.864-4.45-17.15Q433.2,326.852,431.294,329.3ZM267.9,338.026c-3.629,14.824-9.728,29.231-19.175,41.328-9.7,12.025-21.734,22-34.737,30.282a17.665,17.665,0,0,0-5.834,5.952c6.7-1.685,12.939-4.837,19.682-6.361,4.055-.963,8.457-.425,12.263-2.374,7.837-3.73,12.657-11.535,16.181-19.124,6.687-15.811,10.814-32.544,14.347-49.293a75.179,75.179,0,0,1,2.591-9.442A15.058,15.058,0,0,0,267.9,338.026Zm-114.091,2.856c-2.591,1.941-2.366,5.495-2.2,8.383.145,4.54,1.569,9.706,5.818,12.089,2.8,1.516,4.506,4.356,7.186,6.008,1.69.642,2.784-.89,3.943-1.8a44.033,44.033,0,0,0-5.818-11.792c-1.585-2.126-5.472-2.816-5.118-6.048-.233-1.949,1.344-3.505,3.009-4.171,3.186-.826,6.035,2.936,9.189,1.259.467-1.1.861-2.663-.249-3.513a14.231,14.231,0,0,0-5.8-3.546C160.127,336.718,156.587,338.74,153.811,340.882Zm12.947,7.091c-1.344,1.949-3.066,3.794-3.476,6.209,4.015.61,9.495-2.4,7.789-7.075C169.662,346.609,167.7,346.665,166.758,347.973ZM365.49,371.26a36.582,36.582,0,0,1-8.819,5.711c-4.739,2.078-9.664,4.219-14.958,4.139-3.267.265-6.453-.505-9.648-1.051-2.374,1.42-4.063,3.714-5.938,5.7a30.9,30.9,0,0,0,13.156,2.463c13.188-.818,25.531-7.436,34.527-16.918C371.034,371.332,368.258,371.3,365.49,371.26ZM260.644,396.945c3.371,3.842,7.1,7.669,12.1,9.289,1.77-1.636,3.629-3.193,5.472-4.749-3.034-5.744-8.433-9.618-12.2-14.816A104.808,104.808,0,0,1,260.644,396.945Zm175.4-.209c-.515,1.957,1.77,2.743,2.945,3.77,3.211-2.038,5.053-5.391,6.268-8.88-.893-.939-1.8-1.853-2.712-2.767C439.751,390.865,437.152,393.416,436.041,396.737ZM353.79,416.246c-3.46-5.423-9.495-8.078-15.16-10.557Q330.363,416,322.167,426.377a39.953,39.953,0,0,1,14.886,8.663,24.947,24.947,0,0,0,16.89-15.69,42.528,42.528,0,0,1,12.512,7.7c5.93-1.139,10.71-5.551,13.631-10.653,1.81-3.064,2.39-7.179.37-10.292-2.7-4.324-7.741-6.169-12.215-8.086C363.357,404.037,358.457,410.053,353.79,416.246Zm64.581-.289c1.464,1.267,3.524,3.1,5.536,1.725,2.6-.971,2.977-5.318-.032-5.992C420.938,410.719,419.361,413.807,418.371,415.957Zm-122.113,2.455c-1.955,1.709-3.967,3.353-6.051,4.909,4.281,2.6,9.076,4.139,13.751,5.864,4.49,1.612,9.245.112,13.679-.922a56.482,56.482,0,0,0-4.128-4.717A79.463,79.463,0,0,1,296.258,418.412Zm69.908,21.939c-1.971.69-3.565,3.12-2.647,5.158,1.231,3.858,5.56,6.77,9.616,5.832a3.505,3.505,0,0,0,2.671-4.083c-.676-2.35-3.645-2.374-5-4.163C369.465,441.939,368.3,439.517,366.166,440.351Zm-90.064,8.76c-1.843,1.452-1.529,3.987-1.746,6.056-.177,3.61-1.6,7.292-.531,10.885,1.481,2.607,4.16,4.412,6.831,5.671,3.259,1.267,5.874-1.733,7.725-3.963,2.671-3.377,1.336-8.174-1.078-11.295a62.932,62.932,0,0,0-6.349-6.578C279.674,448.79,277.5,447.562,276.1,449.111ZM258.23,460.132c-5.938,1.709-10.364,6.738-12.89,12.169a3.605,3.605,0,0,0,1.167,4.773c5.93,3.281,14.524,5.647,19.875.088,2-2.326,5.979-2.607,6.687-5.976C273.478,463.863,265.182,457.75,258.23,460.132Zm-55.947,7.958c-.644,2.3,1.625,3.642,3.347,4.5,3.267-1.861,6.228-6.2,10.468-4.645,1.915,1.8,1.81,4.677,2.4,7.059-3.428,2.326-6.952-1.067-9.8-2.8-.282,1.54-1,3.145-.459,4.725a6.77,6.77,0,0,0,8.6,4.653c2.993-.939,6.477-2.84,6.8-6.329.362-3.377.322-7-1.328-10.059-1.328-2.487-3.991-4.516-6.928-4.26A16.284,16.284,0,0,0,202.283,468.09Zm83.37,9.6c1.352,3.794,5.641,4.524,8.851,6.056.056-.361.177-1.091.241-1.452,2.422-1.412,5.134-2.278,7.475-3.842,3.814-2.655,8.288-4.733,10.766-8.856a20.145,20.145,0,0,0-3.46-2.423,76.943,76.943,0,0,1-10.444.3C293,467.023,286.763,471.748,285.652,477.692Z" transform="translate(-35.764 -30.367)" fill="#2e3093"/>
      </g>
      <path id="Path_232402" data-name="Path 232402" d="M138.024,55.015c3.629-1.436,6.992-6.161,11.144-3.546-3.532,4.508-9.028,6.658-13.22,10.428a17.154,17.154,0,0,1-11.088,4.6c.684-1.973,1.094-4.252,2.784-5.671A31.667,31.667,0,0,1,138.024,55.015Z" transform="translate(-24.392 -10.029)" fill="#2e3093"/>
      <path id="Path_232403" data-name="Path 232403" d="M194.624,59.611q1.557-.9,3.1-1.821c.612,2.334,1.947,4.356,2.961,6.514.966,2.07.539,4.4.322,6.578-2.953.321-5.922,1.163-8.891.882a19.636,19.636,0,0,1-.563-5.888c.95-1.829,2.744-3.016,4.08-4.548C195.38,60.894,194.873,60.036,194.624,59.611Z" transform="translate(-37.412 -11.433)" fill="#2e3093"/>
      <path id="Path_232404" data-name="Path 232404" d="M116.49,76.212q2.414-.782,4.892-1.332a7.351,7.351,0,0,1-4.546,4.276C116.715,78.169,116.6,77.19,116.49,76.212Z" transform="translate(-22.756 -14.813)" fill="#2e3093"/>
      <path id="Path_232405" data-name="Path 232405" d="M103.24,89.255c1.336-2.286,3.154-4.38,5.906-4.885C109.919,87.819,106.41,90.266,103.24,89.255Z" transform="translate(-20.168 -16.691)" fill="#2e3093"/>
      <path id="Path_232406" data-name="Path 232406" d="M533,90.97c2.607,0,3.516,2.495,4.232,4.548C535.124,94.716,532.992,93.513,533,90.97Z" transform="translate(-104.122 -17.997)" fill="#2e3093"/>
      <path id="Path_232407" data-name="Path 232407" d="M81.619,105.878a23.81,23.81,0,0,1,3.082-.618c.113,1.332.217,2.663.322,3.995-1.633.257-3.259.537-4.892.81A20.41,20.41,0,0,1,81.619,105.878Z" transform="translate(-15.654 -20.823)" fill="#2e3093"/>
      <path id="Path_232408" data-name="Path 232408" d="M84.79,118.255c.724-1.452,1.456-3.321,3.436-3.128A6.063,6.063,0,0,1,84.79,118.255Z" transform="translate(-16.564 -22.773)" fill="#2e3093"/>
      <path id="Path_232409" data-name="Path 232409" d="M42.01,150.828c6.22-7.661,11.136-16.444,18.62-23.038.338,1.2.99,2.463.563,3.746a34.306,34.306,0,0,1-4.482,9.008c-4.466,6.995-8.988,13.966-13.937,20.64-3.307,4.388-3.935,10.027-6.405,14.824-1.641,3.136-3.42,6.393-6.252,8.615-.933.024-2.269.12-2.358-1.155a93.584,93.584,0,0,1,3.1-11.824c1.191-3.538,3.878-6.249,5.488-9.562C38.228,158.329,39.419,154.2,42.01,150.828Z" transform="translate(-5.423 -25.281)" fill="#2e3093"/>
      <path id="Path_232410" data-name="Path 232410" d="M575.47,144.514c.507-.217,1.513-.658,2.012-.874,4.506,4.276,8.916,9.137,10.09,15.466-3.87-2.88-8-5.559-11.185-9.217C575.036,148.413,575.438,146.319,575.47,144.514Z" transform="translate(-112.403 -28.416)" fill="#2e3093"/>
      <path id="Path_232411" data-name="Path 232411" d="M416.846,148.676c3.154-2.96,7.845-2.679,11.812-2.005,5.464,1.171,11.249,1.845,16.021,5.006-2.671,4.893-7.177,8.327-11.418,11.784a43.348,43.348,0,0,1-30.834,9.1c-1.521-.136-2.744-1.115-4.007-1.853A92.283,92.283,0,0,1,416.846,148.676Z" transform="translate(-77.832 -28.928)" fill="#2e3093"/>
      <path id="Path_232412" data-name="Path 232412" d="M589.534,162.75a149.174,149.174,0,0,1,10.831,16.14c2.261,3.562,2.076,8.591,5.818,11.126,3.009,2.735,3.565,7.011,4.812,10.677a7.933,7.933,0,0,0,.732,7.861,54.414,54.414,0,0,0,0,9.089c-1.6-1.187-3.3-2.407-4.128-4.284-2.342-4.845-1.617-10.468-3.508-15.466-.99-3.73-3.838-6.5-5.375-9.963-2.84-6.064-5.3-12.289-8.038-18.4A13.8,13.8,0,0,1,589.534,162.75Z" transform="translate(-115.162 -32.197)" fill="#2e3093"/>
      <path id="Path_232413" data-name="Path 232413" d="M20.284,214.4c.789-.842,1.464.826,2.084,1.187,2.543,3-.29,7.139-2.848,9.137-1.175,1.332-3.927,1.083-3.83-1.059C16.711,220.41,17.773,216.849,20.284,214.4Z" transform="translate(-3.064 -42.369)" fill="#2e3093"/>
      <path id="Path_232414" data-name="Path 232414" d="M616.564,238.052a27.474,27.474,0,0,1,5.295-2.832c1.183,1.019,2.7,1.965,3.026,3.618a84.936,84.936,0,0,1,1.255,11.511c.169,3.682-1.6,7.388-.4,11.014.587,1.949,2.422,3.57,2.06,5.728.088,1.356-1.5,1.66-2.269,2.407a37.339,37.339,0,0,1-2.921-8.639c-.531-.008-1.6-.008-2.14-.016.547-.112,1.641-.345,2.189-.465a165.772,165.772,0,0,0-6.1-18.458C616.1,240.691,615.679,239.183,616.564,238.052Z" transform="translate(-120.345 -46.533)" fill="#2e3093"/>
      <path id="Path_232415" data-name="Path 232415" d="M7.58,268.889c-.837-1.9.346-3.81.99-5.559.885.417,1.77.818,2.671,1.2a37.56,37.56,0,0,1-.515,5.623C9.632,269.884,8.336,269.86,7.58,268.889Z" transform="translate(-1.424 -52.094)" fill="#2e3093"/>
      <path id="Path_232416" data-name="Path 232416" d="M3.79,286.324c.869-.69,1.73-1.372,2.6-2.054.772,1.516,1.553,3.024,2.293,4.556a16.823,16.823,0,0,0-1.36,11.086A61.521,61.521,0,0,1,8.578,317.5c-.225,2.9-1.786,5.471-2.358,8.294.716,2.495,2.422,4.6,2.969,7.155.314,3.939-1.239,7.717-2.937,11.19.829,2.366,1.5,4.773,2.277,7.155.515,2.206,3.219,2.92,3.894,5,.386,3.369-1.464,6.762-.233,10.083a12.46,12.46,0,0,1,.491,7.228c1.923,2.759,4.941,4.54,6.719,7.428a24.1,24.1,0,0,1,3.935,9.738c.982,6.016,1.625,12.089,2.124,18.169-3.058.634-5.142-1.869-6.325-4.324a204.03,204.03,0,0,1-9.012-19.806c-1.287-3.04-.467-6.313.241-9.377-2.945-4.685-2.792-10.364-4.611-15.45-1.473-4.6-.845-9.5-1.3-14.239-.121-3.858-2.261-7.276-2.639-11.094-.909-5.094-.241-10.268.29-15.362.418-2.936-1.287-5.527-2.1-8.238v-3.562a62.385,62.385,0,0,1,2.921-6.482C1.794,296.07,4,291.265,3.79,286.324Z" transform="translate(0 -56.237)" fill="#2e3093"/>
      <path id="Path_232417" data-name="Path 232417" d="M631.747,292.682c-1.593-1.9-2.856-4.211-2.164-6.762C632.19,287.268,631.731,290.244,631.747,292.682Z" transform="translate(-122.952 -56.563)" fill="#2e3093"/>
      <path id="Path_232418" data-name="Path 232418" d="M604.787,326.42c1.955,1.428,1.239,4,1.376,6.064a58.552,58.552,0,0,0,2.229,17.552c.837,2.038-.129,4.123-.491,6.153-.6,2.511-.547,5.118-1.086,7.645-.587,2.5-3.025,4.428-2.607,7.163.612,9.682-3.758,18.642-5.456,28-1.424,7.805-4.884,15.017-7.089,22.6-.99,3.465-4.208,5.655-5.472,8.984-2.486,6.433-6.349,12.249-8.449,18.835-4.16,11.84-13.237,20.832-21.042,30.33-9.366,11.19-18.845,22.485-30.472,31.437-6.534,4.853-13.566,8.96-20.261,13.565-3.219,2.126-6.727,4.8-10.839,3.81.789-2.374,3.219-3.385,5.013-4.861,3.009-2.062,4.474-5.712,7.636-7.589,8.964-4.236,14.275-13.043,21.46-19.485,2.462-2.431,5.665-4.2,7.346-7.332,4.224-7.781,12.713-12.017,17.058-19.709,3.75-6.546,8.578-12.378,12.826-18.586,3.025-5.984,6.4-11.776,9.471-17.728,2.052-3.818,2.9-8.134,5.013-11.92,2.873-5.278,4.546-11.078,6.992-16.557,2.913-6.57,4.361-13.637,6.244-20.536,3.243-12.329,6.534-24.683,8.392-37.309.628-3.995,1.239-8.07.539-12.1C602.663,331.907,603.621,329.059,604.787,326.42Z" transform="translate(-96.724 -64.575)" fill="#2e3093"/>
      <path id="Path_232419" data-name="Path 232419" d="M85.876,329.4l.249-.345c4.047.882,8.883,3.369,9.318,7.95a7.731,7.731,0,0,1-10.042,4.8c-2.237-.738-3.186-3.5-2.567-5.623A21.908,21.908,0,0,1,85.876,329.4Z" transform="translate(-16.146 -65.098)" fill="#2e3093"/>
      <path id="Path_232420" data-name="Path 232420" d="M31.036,444.024c1.384-1.292,3.468-.513,4.731.545,2.076,1.685,4.627,3.185,5.624,5.792,1,3.209.716,6.618,1.36,9.891.716,2.864,4.3,3.947,4.908,6.859.41,1.733-1.135,2.992-1.939,4.316.378,1.083.764,2.174,1.143,3.273-.99.465-2,.93-3,1.388-1.312-3.2-2.261-6.618-4.53-9.321-4.321-5.7-6.526-12.578-8.69-19.292C30.336,446.366,29.845,444.786,31.036,444.024Z" transform="translate(-5.915 -87.707)" fill="#2e3093"/>
      <path id="Path_232421" data-name="Path 232421" d="M51.36,486.591c1.955-1.115,4.772-2.166,6.558-.177,4.007,4.54,6.5,10.364,11.354,14.158a11.412,11.412,0,0,1,4.144,8.07c-3.6,1.107-6.542-1.685-9-3.875-3.323-2.9-4.3-7.428-7.169-10.661A58.947,58.947,0,0,1,51.36,486.591Z" transform="translate(-10.033 -96.005)" fill="#2e3093"/>
      <path id="Path_232422" data-name="Path 232422" d="M72.92,516.98c2.14.778,4.063,2.078,4.715,4.4C74.553,522.7,73.709,519.09,72.92,516.98Z" transform="translate(-14.245 -102.274)" fill="#2e3093"/>
      <path id="Path_232423" data-name="Path 232423" d="M81.485,527.675c1-.818,3.291.818,1.875,1.773C82.587,531.117,79.844,528.2,81.485,527.675Z" transform="translate(-15.818 -104.346)" fill="#2e3093"/>
      <path id="Path_232424" data-name="Path 232424" d="M98.23,541.066a5.24,5.24,0,0,1,4.418,2.238c-.241.762-.483,1.524-.708,2.294,1.183,1.027,2.333,2.1,3.5,3.169,1.545-.273,3.042-.778,4.6-1,1.247,1.781,2.181,3.8,3.726,5.366,3.363,1.749,7.443,1.235,10.823,2.976,4.812,2.583,8.875,7.308,9.1,12.971-3.178-.217-6-2.647-9.245-1.66a22.557,22.557,0,0,0-4.4-3.754c-8.167-4.893-16.479-10.019-22.667-17.383C95.7,544.74,97.86,542.767,98.23,541.066Z" transform="translate(-18.9 -107.036)" fill="#2e3093"/>
      <path id="Path_232425" data-name="Path 232425" d="M139.74,577.875c3.042-.971,6.534.794,6.357,4.284A7.289,7.289,0,0,1,139.74,577.875Z" transform="translate(-27.298 -114.268)" fill="#2e3093"/>
      <path id="Path_232426" data-name="Path 232426" d="M479.65,587.618a6.317,6.317,0,0,1,5.737-2.7C484.414,587.241,481.935,587.826,479.65,587.618Z" transform="translate(-93.7 -115.709)" fill="#2e3093"/>
      <path id="Path_232427" data-name="Path 232427" d="M166.65,596.39l3.661-.89c.547,1.46,1.1,2.912,1.666,4.38l-4.683-.241C167.085,598.548,166.875,597.465,166.65,596.39Z" transform="translate(-32.555 -117.807)" fill="#2e3093"/>
      <path id="Path_232428" data-name="Path 232428" d="M192.64,608.181c.724-.762,1.3-2.206,2.6-1.9,7.33.209,14,3.538,20.889,5.655,7.3,2.206,14.122,6.393,21.927,6.578,6.308.273,12.762,1.62,17.944,5.415-.78.73-1.3,2.142-2.591,2-3.532.136-7.081.1-10.605-.072-4.739-.249-8.875-3.056-13.591-3.425-6.831-.513-13.011-3.634-19.255-6.169C204.082,613.788,197.991,611.71,192.64,608.181Z" transform="translate(-37.632 -119.931)" fill="#2e3093"/>
      <path id="Path_232429" data-name="Path 232429" d="M398.623,610.915c4.208-2.326,9.245-1.332,13.719-.473-3.484,4.7-9.2,6.674-14.54,8.431-3.645.93-6.284,4.476-10.348,3.8l-.772-2.342a38.231,38.231,0,0,1-6.373,4.3c-2.406.955-5.077.425-7.572.963-7.668,1.757-15.57,1.925-23.343,2.992-6.469.842-13.14,1.035-19.424-.955,1.706-1.243,3.363-2.888,5.584-3.056,5.657-.545,11.3.955,16.954.385,1.875-.546,2.881-2.655,4.78-3.225,2.945-.128,6.043.441,8.811-.89,8.143-3.417,16.785-7.492,25.853-6.1C394.937,615.311,396.345,612.11,398.623,610.915Z" transform="translate(-64.46 -120.572)" fill="#2e3093"/>
      <path id="Path_232430" data-name="Path 232430" d="M289.685,628.281c3.05-1.58,6.558-.016,8.819,2.19a15.914,15.914,0,0,0,1.287-2.158c.346.321,1.046.963,1.392,1.283a22.392,22.392,0,0,0-2.945,4.284,52.475,52.475,0,0,1-11.088-1.829C287.842,630.72,288.1,628.867,289.685,628.281Z" transform="translate(-56.095 -124.165)" fill="#2e3093"/>
      <path id="Path_232431" data-name="Path 232431" d="M311.12,630.48c3.074-2.711,8.175-2.944,10.863.425C319.1,633.929,313.832,633.512,311.12,630.48Z" transform="translate(-60.778 -124.318)" fill="#2e3093"/>
      <path id="Path_232432" data-name="Path 232432" d="M398.23,631.565c2.285-1.7,4.989-2.792,7.878-2.062.266.513.8,1.548,1.062,2.07-.66,1.436-1.175,3.1-2.535,4.059-1.73,1.532-4.112.594-6.107.337C398.423,634.493,398.319,633.025,398.23,631.565Z" transform="translate(-77.795 -124.489)" fill="#2e3093"/>
    </g>
  </g>
</svg>
